{
	"asset":{
		"generator":"Khronos glTF Blender I/O v3.5.30",
		"version":"2.0"
	},
	"scene":0,
	"scenes":[
		{
			"name":"Scene",
			"nodes":[
				17
			]
		}
	],
	"nodes":[
		{
			"name":"Head",
			"rotation":[
				0.11933701485395432,
				1.254376371662147e-07,
				-3.862252810904465e-07,
				0.9928538203239441
			],
			"scale":[
				1,
				0.9999999403953552,
				1
			],
			"translation":[
				-3.979039320256561e-13,
				0.3023296594619751,
				7.450561056998595e-09
			]
		},
		{
			"children":[
				0
			],
			"name":"Neck",
			"rotation":[
				3.2926638482422277e-07,
				0.9882555603981018,
				0.15281003713607788,
				6.63657374389004e-07
			],
			"scale":[
				1,
				0.9999998211860657,
				1.0000001192092896
			],
			"translation":[
				-8.881784197001252e-16,
				1.2951605319976807,
				-3.2596386034811076e-08
			]
		},
		{
			"name":"Hand.L",
			"rotation":[
				-0.09493207186460495,
				-0.020755236968398094,
				0.05969187989830971,
				0.9934757351875305
			],
			"scale":[
				0.9999998807907104,
				0.9999998807907104,
				1
			],
			"translation":[
				-8.195638656616211e-08,
				1.083282470703125,
				-3.849397387511999e-07
			]
		},
		{
			"children":[
				2
			],
			"name":"Lower_Arm.L",
			"rotation":[
				0.13054054975509644,
				-0.6928813457489014,
				-0.16665853559970856,
				0.6892746686935425
			],
			"scale":[
				1,
				0.9999998807907104,
				1
			],
			"translation":[
				3.522058023008867e-07,
				1.4807448387145996,
				0
			]
		},
		{
			"children":[
				3
			],
			"name":"Upper_Arm.L",
			"rotation":[
				-0.004112357273697853,
				0.09395944327116013,
				-0.94700026512146,
				0.3071567118167877
			],
			"scale":[
				1,
				0.9999998807907104,
				1
			],
			"translation":[
				0.9250665903091431,
				0.7715873718261719,
				-0.1557152271270752
			]
		},
		{
			"name":"Hand.R",
			"rotation":[
				0.07497242838144302,
				-0.09154462069272995,
				0.08339328318834305,
				0.989466667175293
			],
			"translation":[
				1.341104507446289e-07,
				1.0832817554473877,
				-1.6111880540847778e-07
			]
		},
		{
			"children":[
				5
			],
			"name":"Lower_Arm.R",
			"rotation":[
				0.18049214780330658,
				-0.47458580136299133,
				-0.11062759906053543,
				0.8543725609779358
			],
			"translation":[
				-1.1920928955078125e-07,
				1.4807449579238892,
				-1.1175870895385742e-07
			]
		},
		{
			"children":[
				6
			],
			"name":"Upper_Arm.R",
			"rotation":[
				0.0721217468380928,
				-0.11837667226791382,
				0.9442591071128845,
				0.2985970377922058
			],
			"scale":[
				1,
				0.9999999403953552,
				1
			],
			"translation":[
				-0.9250668883323669,
				0.7715883255004883,
				-0.1557161659002304
			]
		},
		{
			"children":[
				1,
				4,
				7
			],
			"name":"Chest",
			"rotation":[
				-0.07503776252269745,
				1.7680764585747966e-07,
				-8.469645251807378e-08,
				0.997180700302124
			],
			"scale":[
				1,
				0.9999998807907104,
				0.9999999403953552
			],
			"translation":[
				-1.5987211554602254e-14,
				1.4824044704437256,
				1.4901134548495065e-08
			]
		},
		{
			"name":"Foot.L",
			"rotation":[
				-0.011929750442504883,
				-0.8051522374153137,
				0.5928831696510315,
				0.008784071542322636
			],
			"scale":[
				0.9999999403953552,
				1,
				0.9999999403953552
			],
			"translation":[
				-6.170012056827545e-08,
				1.4933314323425293,
				-2.3287952899408992e-08
			]
		},
		{
			"children":[
				9
			],
			"name":"Lower_Leg.L",
			"rotation":[
				0.020502129569649696,
				0.9948228597640991,
				-0.09952602535486221,
				0.0013170416932553053
			],
			"scale":[
				0.9999999403953552,
				0.999999463558197,
				1.0000001192092896
			],
			"translation":[
				2.796080877942586e-08,
				1.2827736139297485,
				1.9063008949160576e-08
			]
		},
		{
			"children":[
				10
			],
			"name":"Upper_Leg.L",
			"rotation":[
				-1.7919047650138964e-06,
				-0.072573222219944,
				-0.9973464012145996,
				0.005763303954154253
			],
			"scale":[
				1.0000001192092896,
				1.000000238418579,
				1.0000132322311401
			],
			"translation":[
				0.5668193697929382,
				-0.001348974066786468,
				-0.10437473654747009
			]
		},
		{
			"name":"Foot.R",
			"rotation":[
				-0.011929555796086788,
				0.805147647857666,
				-0.5928893685340881,
				0.008784886449575424
			],
			"scale":[
				1.0000001192092896,
				1.0000001192092896,
				1
			],
			"translation":[
				4.540197551250458e-08,
				1.4933347702026367,
				-1.5179750789684476e-09
			]
		},
		{
			"children":[
				12
			],
			"name":"Lower_Leg.R",
			"rotation":[
				0.02041928842663765,
				-0.9948233962059021,
				0.09954503178596497,
				0.000488200515974313
			],
			"scale":[
				1.0000001192092896,
				0.9999999403953552,
				1
			],
			"translation":[
				9.696486813481897e-08,
				1.2827730178833008,
				2.87545844912529e-08
			]
		},
		{
			"children":[
				13
			],
			"name":"Upper_Leg.R",
			"rotation":[
				-0.0008326196693815291,
				0.07257720828056335,
				0.9973461627960205,
				0.0057032289914786816
			],
			"scale":[
				0.9999998807907104,
				0.9999997019767761,
				0.9999914169311523
			],
			"translation":[
				-0.5668193101882935,
				-0.0013497784966602921,
				-0.10437477380037308
			]
		},
		{
			"children":[
				8,
				11,
				14
			],
			"name":"Torso",
			"rotation":[
				0.03234973922371864,
				6.661213802772181e-08,
				6.661214513314917e-08,
				0.9994766712188721
			],
			"scale":[
				1,
				0.9999999403953552,
				0.9999999403953552
			],
			"translation":[
				0,
				3.210999011993408,
				-1.0430814256778831e-07
			]
		},
		{
			"mesh":0,
			"name":"Cube",
			"skin":0
		},
		{
			"children":[
				16,
				15
			],
			"name":"Armature"
		}
	],
	"animations":[
		{
			"channels":[
				{
					"sampler":0,
					"target":{
						"node":15,
						"path":"translation"
					}
				},
				{
					"sampler":1,
					"target":{
						"node":15,
						"path":"rotation"
					}
				},
				{
					"sampler":2,
					"target":{
						"node":15,
						"path":"scale"
					}
				},
				{
					"sampler":3,
					"target":{
						"node":8,
						"path":"translation"
					}
				},
				{
					"sampler":4,
					"target":{
						"node":8,
						"path":"rotation"
					}
				},
				{
					"sampler":5,
					"target":{
						"node":8,
						"path":"scale"
					}
				},
				{
					"sampler":6,
					"target":{
						"node":1,
						"path":"translation"
					}
				},
				{
					"sampler":7,
					"target":{
						"node":1,
						"path":"rotation"
					}
				},
				{
					"sampler":8,
					"target":{
						"node":1,
						"path":"scale"
					}
				},
				{
					"sampler":9,
					"target":{
						"node":0,
						"path":"translation"
					}
				},
				{
					"sampler":10,
					"target":{
						"node":0,
						"path":"rotation"
					}
				},
				{
					"sampler":11,
					"target":{
						"node":0,
						"path":"scale"
					}
				},
				{
					"sampler":12,
					"target":{
						"node":4,
						"path":"translation"
					}
				},
				{
					"sampler":13,
					"target":{
						"node":4,
						"path":"rotation"
					}
				},
				{
					"sampler":14,
					"target":{
						"node":4,
						"path":"scale"
					}
				},
				{
					"sampler":15,
					"target":{
						"node":3,
						"path":"translation"
					}
				},
				{
					"sampler":16,
					"target":{
						"node":3,
						"path":"rotation"
					}
				},
				{
					"sampler":17,
					"target":{
						"node":3,
						"path":"scale"
					}
				},
				{
					"sampler":18,
					"target":{
						"node":2,
						"path":"translation"
					}
				},
				{
					"sampler":19,
					"target":{
						"node":2,
						"path":"rotation"
					}
				},
				{
					"sampler":20,
					"target":{
						"node":2,
						"path":"scale"
					}
				},
				{
					"sampler":21,
					"target":{
						"node":7,
						"path":"translation"
					}
				},
				{
					"sampler":22,
					"target":{
						"node":7,
						"path":"rotation"
					}
				},
				{
					"sampler":23,
					"target":{
						"node":7,
						"path":"scale"
					}
				},
				{
					"sampler":24,
					"target":{
						"node":6,
						"path":"translation"
					}
				},
				{
					"sampler":25,
					"target":{
						"node":6,
						"path":"rotation"
					}
				},
				{
					"sampler":26,
					"target":{
						"node":6,
						"path":"scale"
					}
				},
				{
					"sampler":27,
					"target":{
						"node":5,
						"path":"translation"
					}
				},
				{
					"sampler":28,
					"target":{
						"node":5,
						"path":"rotation"
					}
				},
				{
					"sampler":29,
					"target":{
						"node":5,
						"path":"scale"
					}
				},
				{
					"sampler":30,
					"target":{
						"node":11,
						"path":"translation"
					}
				},
				{
					"sampler":31,
					"target":{
						"node":11,
						"path":"rotation"
					}
				},
				{
					"sampler":32,
					"target":{
						"node":11,
						"path":"scale"
					}
				},
				{
					"sampler":33,
					"target":{
						"node":10,
						"path":"translation"
					}
				},
				{
					"sampler":34,
					"target":{
						"node":10,
						"path":"rotation"
					}
				},
				{
					"sampler":35,
					"target":{
						"node":10,
						"path":"scale"
					}
				},
				{
					"sampler":36,
					"target":{
						"node":9,
						"path":"translation"
					}
				},
				{
					"sampler":37,
					"target":{
						"node":9,
						"path":"rotation"
					}
				},
				{
					"sampler":38,
					"target":{
						"node":9,
						"path":"scale"
					}
				},
				{
					"sampler":39,
					"target":{
						"node":14,
						"path":"translation"
					}
				},
				{
					"sampler":40,
					"target":{
						"node":14,
						"path":"rotation"
					}
				},
				{
					"sampler":41,
					"target":{
						"node":14,
						"path":"scale"
					}
				},
				{
					"sampler":42,
					"target":{
						"node":13,
						"path":"translation"
					}
				},
				{
					"sampler":43,
					"target":{
						"node":13,
						"path":"rotation"
					}
				},
				{
					"sampler":44,
					"target":{
						"node":13,
						"path":"scale"
					}
				},
				{
					"sampler":45,
					"target":{
						"node":12,
						"path":"translation"
					}
				},
				{
					"sampler":46,
					"target":{
						"node":12,
						"path":"rotation"
					}
				},
				{
					"sampler":47,
					"target":{
						"node":12,
						"path":"scale"
					}
				}
			],
			"name":"ArmatureAction",
			"samplers":[
				{
					"input":8,
					"interpolation":"LINEAR",
					"output":9
				},
				{
					"input":8,
					"interpolation":"LINEAR",
					"output":10
				},
				{
					"input":8,
					"interpolation":"LINEAR",
					"output":11
				},
				{
					"input":8,
					"interpolation":"LINEAR",
					"output":12
				},
				{
					"input":8,
					"interpolation":"LINEAR",
					"output":13
				},
				{
					"input":8,
					"interpolation":"LINEAR",
					"output":14
				},
				{
					"input":8,
					"interpolation":"LINEAR",
					"output":15
				},
				{
					"input":8,
					"interpolation":"LINEAR",
					"output":16
				},
				{
					"input":8,
					"interpolation":"LINEAR",
					"output":17
				},
				{
					"input":8,
					"interpolation":"LINEAR",
					"output":18
				},
				{
					"input":8,
					"interpolation":"LINEAR",
					"output":19
				},
				{
					"input":8,
					"interpolation":"LINEAR",
					"output":20
				},
				{
					"input":8,
					"interpolation":"LINEAR",
					"output":21
				},
				{
					"input":8,
					"interpolation":"LINEAR",
					"output":22
				},
				{
					"input":8,
					"interpolation":"LINEAR",
					"output":23
				},
				{
					"input":8,
					"interpolation":"LINEAR",
					"output":24
				},
				{
					"input":8,
					"interpolation":"LINEAR",
					"output":25
				},
				{
					"input":8,
					"interpolation":"LINEAR",
					"output":26
				},
				{
					"input":8,
					"interpolation":"LINEAR",
					"output":27
				},
				{
					"input":8,
					"interpolation":"LINEAR",
					"output":28
				},
				{
					"input":8,
					"interpolation":"LINEAR",
					"output":29
				},
				{
					"input":8,
					"interpolation":"LINEAR",
					"output":30
				},
				{
					"input":8,
					"interpolation":"LINEAR",
					"output":31
				},
				{
					"input":8,
					"interpolation":"LINEAR",
					"output":32
				},
				{
					"input":8,
					"interpolation":"LINEAR",
					"output":33
				},
				{
					"input":8,
					"interpolation":"LINEAR",
					"output":34
				},
				{
					"input":8,
					"interpolation":"LINEAR",
					"output":35
				},
				{
					"input":8,
					"interpolation":"LINEAR",
					"output":36
				},
				{
					"input":8,
					"interpolation":"LINEAR",
					"output":37
				},
				{
					"input":8,
					"interpolation":"LINEAR",
					"output":38
				},
				{
					"input":8,
					"interpolation":"LINEAR",
					"output":39
				},
				{
					"input":8,
					"interpolation":"LINEAR",
					"output":40
				},
				{
					"input":8,
					"interpolation":"LINEAR",
					"output":41
				},
				{
					"input":8,
					"interpolation":"LINEAR",
					"output":42
				},
				{
					"input":8,
					"interpolation":"LINEAR",
					"output":43
				},
				{
					"input":8,
					"interpolation":"LINEAR",
					"output":44
				},
				{
					"input":8,
					"interpolation":"LINEAR",
					"output":45
				},
				{
					"input":8,
					"interpolation":"LINEAR",
					"output":46
				},
				{
					"input":8,
					"interpolation":"LINEAR",
					"output":47
				},
				{
					"input":8,
					"interpolation":"LINEAR",
					"output":48
				},
				{
					"input":8,
					"interpolation":"LINEAR",
					"output":49
				},
				{
					"input":8,
					"interpolation":"LINEAR",
					"output":50
				},
				{
					"input":8,
					"interpolation":"LINEAR",
					"output":51
				},
				{
					"input":8,
					"interpolation":"LINEAR",
					"output":52
				},
				{
					"input":8,
					"interpolation":"LINEAR",
					"output":53
				},
				{
					"input":8,
					"interpolation":"LINEAR",
					"output":54
				},
				{
					"input":8,
					"interpolation":"LINEAR",
					"output":55
				},
				{
					"input":8,
					"interpolation":"LINEAR",
					"output":56
				}
			]
		}
	],
	"materials":[
		{
			"doubleSided":true,
			"name":"Material.001",
			"pbrMetallicRoughness":{
				"baseColorFactor":[
					0.800000011920929,
					0.800000011920929,
					0.800000011920929,
					1
				],
				"metallicFactor":0,
				"roughnessFactor":0.5
			}
		}
	],
	"meshes":[
		{
			"name":"Cube.001",
			"primitives":[
				{
					"attributes":{
						"COLOR_0":0,
						"POSITION":1,
						"TEXCOORD_0":2,
						"NORMAL":3,
						"JOINTS_0":4,
						"WEIGHTS_0":5
					},
					"indices":6,
					"material":0
				}
			]
		}
	],
	"skins":[
		{
			"inverseBindMatrices":7,
			"joints":[
				15,
				8,
				1,
				0,
				4,
				3,
				2,
				7,
				6,
				5,
				11,
				10,
				9,
				14,
				13,
				12
			],
			"name":"Armature"
		}
	],
	"accessors":[
		{
			"bufferView":0,
			"componentType":5123,
			"count":4130,
			"normalized":true,
			"type":"VEC4"
		},
		{
			"bufferView":1,
			"componentType":5126,
			"count":4130,
			"max":[
				2.7054710388183594,
				8.698832511901855,
				1.7497529983520508
			],
			"min":[
				-2.7054710388183594,
				-0.02032732032239437,
				-1.777601957321167
			],
			"type":"VEC3"
		},
		{
			"bufferView":2,
			"componentType":5126,
			"count":4130,
			"type":"VEC2"
		},
		{
			"bufferView":3,
			"componentType":5126,
			"count":4130,
			"type":"VEC3"
		},
		{
			"bufferView":4,
			"componentType":5121,
			"count":4130,
			"type":"VEC4"
		},
		{
			"bufferView":5,
			"componentType":5126,
			"count":4130,
			"type":"VEC4"
		},
		{
			"bufferView":6,
			"componentType":5123,
			"count":4260,
			"type":"SCALAR"
		},
		{
			"bufferView":7,
			"componentType":5126,
			"count":16,
			"type":"MAT4"
		},
		{
			"bufferView":8,
			"componentType":5126,
			"count":21,
			"max":[
				0.8333333333333334
			],
			"min":[
				0
			],
			"type":"SCALAR"
		},
		{
			"bufferView":9,
			"componentType":5126,
			"count":21,
			"type":"VEC3"
		},
		{
			"bufferView":10,
			"componentType":5126,
			"count":21,
			"type":"VEC4"
		},
		{
			"bufferView":11,
			"componentType":5126,
			"count":21,
			"type":"VEC3"
		},
		{
			"bufferView":12,
			"componentType":5126,
			"count":21,
			"type":"VEC3"
		},
		{
			"bufferView":13,
			"componentType":5126,
			"count":21,
			"type":"VEC4"
		},
		{
			"bufferView":14,
			"componentType":5126,
			"count":21,
			"type":"VEC3"
		},
		{
			"bufferView":15,
			"componentType":5126,
			"count":21,
			"type":"VEC3"
		},
		{
			"bufferView":16,
			"componentType":5126,
			"count":21,
			"type":"VEC4"
		},
		{
			"bufferView":17,
			"componentType":5126,
			"count":21,
			"type":"VEC3"
		},
		{
			"bufferView":18,
			"componentType":5126,
			"count":21,
			"type":"VEC3"
		},
		{
			"bufferView":19,
			"componentType":5126,
			"count":21,
			"type":"VEC4"
		},
		{
			"bufferView":20,
			"componentType":5126,
			"count":21,
			"type":"VEC3"
		},
		{
			"bufferView":21,
			"componentType":5126,
			"count":21,
			"type":"VEC3"
		},
		{
			"bufferView":22,
			"componentType":5126,
			"count":21,
			"type":"VEC4"
		},
		{
			"bufferView":23,
			"componentType":5126,
			"count":21,
			"type":"VEC3"
		},
		{
			"bufferView":24,
			"componentType":5126,
			"count":21,
			"type":"VEC3"
		},
		{
			"bufferView":25,
			"componentType":5126,
			"count":21,
			"type":"VEC4"
		},
		{
			"bufferView":26,
			"componentType":5126,
			"count":21,
			"type":"VEC3"
		},
		{
			"bufferView":27,
			"componentType":5126,
			"count":21,
			"type":"VEC3"
		},
		{
			"bufferView":28,
			"componentType":5126,
			"count":21,
			"type":"VEC4"
		},
		{
			"bufferView":29,
			"componentType":5126,
			"count":21,
			"type":"VEC3"
		},
		{
			"bufferView":30,
			"componentType":5126,
			"count":21,
			"type":"VEC3"
		},
		{
			"bufferView":31,
			"componentType":5126,
			"count":21,
			"type":"VEC4"
		},
		{
			"bufferView":32,
			"componentType":5126,
			"count":21,
			"type":"VEC3"
		},
		{
			"bufferView":33,
			"componentType":5126,
			"count":21,
			"type":"VEC3"
		},
		{
			"bufferView":34,
			"componentType":5126,
			"count":21,
			"type":"VEC4"
		},
		{
			"bufferView":35,
			"componentType":5126,
			"count":21,
			"type":"VEC3"
		},
		{
			"bufferView":36,
			"componentType":5126,
			"count":21,
			"type":"VEC3"
		},
		{
			"bufferView":37,
			"componentType":5126,
			"count":21,
			"type":"VEC4"
		},
		{
			"bufferView":38,
			"componentType":5126,
			"count":21,
			"type":"VEC3"
		},
		{
			"bufferView":39,
			"componentType":5126,
			"count":21,
			"type":"VEC3"
		},
		{
			"bufferView":40,
			"componentType":5126,
			"count":21,
			"type":"VEC4"
		},
		{
			"bufferView":41,
			"componentType":5126,
			"count":21,
			"type":"VEC3"
		},
		{
			"bufferView":42,
			"componentType":5126,
			"count":21,
			"type":"VEC3"
		},
		{
			"bufferView":43,
			"componentType":5126,
			"count":21,
			"type":"VEC4"
		},
		{
			"bufferView":44,
			"componentType":5126,
			"count":21,
			"type":"VEC3"
		},
		{
			"bufferView":45,
			"componentType":5126,
			"count":21,
			"type":"VEC3"
		},
		{
			"bufferView":46,
			"componentType":5126,
			"count":21,
			"type":"VEC4"
		},
		{
			"bufferView":47,
			"componentType":5126,
			"count":21,
			"type":"VEC3"
		},
		{
			"bufferView":48,
			"componentType":5126,
			"count":21,
			"type":"VEC3"
		},
		{
			"bufferView":49,
			"componentType":5126,
			"count":21,
			"type":"VEC4"
		},
		{
			"bufferView":50,
			"componentType":5126,
			"count":21,
			"type":"VEC3"
		},
		{
			"bufferView":51,
			"componentType":5126,
			"count":21,
			"type":"VEC3"
		},
		{
			"bufferView":52,
			"componentType":5126,
			"count":21,
			"type":"VEC4"
		},
		{
			"bufferView":53,
			"componentType":5126,
			"count":21,
			"type":"VEC3"
		},
		{
			"bufferView":54,
			"componentType":5126,
			"count":21,
			"type":"VEC3"
		},
		{
			"bufferView":55,
			"componentType":5126,
			"count":21,
			"type":"VEC4"
		},
		{
			"bufferView":56,
			"componentType":5126,
			"count":21,
			"type":"VEC3"
		}
	],
	"bufferViews":[
		{
			"buffer":0,
			"byteLength":33040,
			"byteOffset":0,
			"target":34962
		},
		{
			"buffer":0,
			"byteLength":49560,
			"byteOffset":33040,
			"target":34962
		},
		{
			"buffer":0,
			"byteLength":33040,
			"byteOffset":82600,
			"target":34962
		},
		{
			"buffer":0,
			"byteLength":49560,
			"byteOffset":115640,
			"target":34962
		},
		{
			"buffer":0,
			"byteLength":16520,
			"byteOffset":165200,
			"target":34962
		},
		{
			"buffer":0,
			"byteLength":66080,
			"byteOffset":181720,
			"target":34962
		},
		{
			"buffer":0,
			"byteLength":8520,
			"byteOffset":247800,
			"target":34963
		},
		{
			"buffer":0,
			"byteLength":1024,
			"byteOffset":256320
		},
		{
			"buffer":0,
			"byteLength":84,
			"byteOffset":257344
		},
		{
			"buffer":0,
			"byteLength":252,
			"byteOffset":257428
		},
		{
			"buffer":0,
			"byteLength":336,
			"byteOffset":257680
		},
		{
			"buffer":0,
			"byteLength":252,
			"byteOffset":258016
		},
		{
			"buffer":0,
			"byteLength":252,
			"byteOffset":258268
		},
		{
			"buffer":0,
			"byteLength":336,
			"byteOffset":258520
		},
		{
			"buffer":0,
			"byteLength":252,
			"byteOffset":258856
		},
		{
			"buffer":0,
			"byteLength":252,
			"byteOffset":259108
		},
		{
			"buffer":0,
			"byteLength":336,
			"byteOffset":259360
		},
		{
			"buffer":0,
			"byteLength":252,
			"byteOffset":259696
		},
		{
			"buffer":0,
			"byteLength":252,
			"byteOffset":259948
		},
		{
			"buffer":0,
			"byteLength":336,
			"byteOffset":260200
		},
		{
			"buffer":0,
			"byteLength":252,
			"byteOffset":260536
		},
		{
			"buffer":0,
			"byteLength":252,
			"byteOffset":260788
		},
		{
			"buffer":0,
			"byteLength":336,
			"byteOffset":261040
		},
		{
			"buffer":0,
			"byteLength":252,
			"byteOffset":261376
		},
		{
			"buffer":0,
			"byteLength":252,
			"byteOffset":261628
		},
		{
			"buffer":0,
			"byteLength":336,
			"byteOffset":261880
		},
		{
			"buffer":0,
			"byteLength":252,
			"byteOffset":262216
		},
		{
			"buffer":0,
			"byteLength":252,
			"byteOffset":262468
		},
		{
			"buffer":0,
			"byteLength":336,
			"byteOffset":262720
		},
		{
			"buffer":0,
			"byteLength":252,
			"byteOffset":263056
		},
		{
			"buffer":0,
			"byteLength":252,
			"byteOffset":263308
		},
		{
			"buffer":0,
			"byteLength":336,
			"byteOffset":263560
		},
		{
			"buffer":0,
			"byteLength":252,
			"byteOffset":263896
		},
		{
			"buffer":0,
			"byteLength":252,
			"byteOffset":264148
		},
		{
			"buffer":0,
			"byteLength":336,
			"byteOffset":264400
		},
		{
			"buffer":0,
			"byteLength":252,
			"byteOffset":264736
		},
		{
			"buffer":0,
			"byteLength":252,
			"byteOffset":264988
		},
		{
			"buffer":0,
			"byteLength":336,
			"byteOffset":265240
		},
		{
			"buffer":0,
			"byteLength":252,
			"byteOffset":265576
		},
		{
			"buffer":0,
			"byteLength":252,
			"byteOffset":265828
		},
		{
			"buffer":0,
			"byteLength":336,
			"byteOffset":266080
		},
		{
			"buffer":0,
			"byteLength":252,
			"byteOffset":266416
		},
		{
			"buffer":0,
			"byteLength":252,
			"byteOffset":266668
		},
		{
			"buffer":0,
			"byteLength":336,
			"byteOffset":266920
		},
		{
			"buffer":0,
			"byteLength":252,
			"byteOffset":267256
		},
		{
			"buffer":0,
			"byteLength":252,
			"byteOffset":267508
		},
		{
			"buffer":0,
			"byteLength":336,
			"byteOffset":267760
		},
		{
			"buffer":0,
			"byteLength":252,
			"byteOffset":268096
		},
		{
			"buffer":0,
			"byteLength":252,
			"byteOffset":268348
		},
		{
			"buffer":0,
			"byteLength":336,
			"byteOffset":268600
		},
		{
			"buffer":0,
			"byteLength":252,
			"byteOffset":268936
		},
		{
			"buffer":0,
			"byteLength":252,
			"byteOffset":269188
		},
		{
			"buffer":0,
			"byteLength":336,
			"byteOffset":269440
		},
		{
			"buffer":0,
			"byteLength":252,
			"byteOffset":269776
		},
		{
			"buffer":0,
			"byteLength":252,
			"byteOffset":270028
		},
		{
			"buffer":0,
			"byteLength":336,
			"byteOffset":270280
		},
		{
			"buffer":0,
			"byteLength":252,
			"byteOffset":270616
		}
	],
	"buffers":[
		{
			"byteLength":270868,
			"uri":"data:application/octet-stream;base64,"
		}
	]
}
